<svg width="1300" height="232" viewBox="0 0 1300 232" fill="none" xmlns="http://www.w3.org/2000/svg">
<path d="M206.05 212.95C208.784 215.683 213.216 215.683 215.95 212.95L260.497 168.402C263.231 165.668 263.231 161.236 260.497 158.503C257.764 155.769 253.332 155.769 250.598 158.503L211 198.101L171.402 158.503C168.668 155.769 164.236 155.769 161.503 158.503C158.769 161.236 158.769 165.668 161.503 168.402L206.05 212.95ZM628 10.5C628 6.63401 624.866 3.5 621 3.5C617.134 3.5 614 6.63401 614 10.5H628ZM218 208C218 181.893 224.122 162.053 234.422 146.771C244.74 131.461 259.608 120.196 277.957 111.863C314.984 95.0462 364.918 90.6838 416.279 88.6331C466.926 86.611 519.191 86.8583 558.407 78.4377C578.105 74.2081 595.463 67.6261 607.972 56.7675C620.796 45.6351 628 30.4567 628 10.5H614C614 26.622 608.392 37.8638 598.794 46.1952C588.881 54.8004 574.207 60.726 555.468 64.7497C517.809 72.836 467.574 72.5739 415.721 74.6443C364.582 76.686 312.016 81.018 272.168 99.1158C252.08 108.239 234.916 120.987 222.812 138.947C210.69 156.934 204 179.62 204 208L218 208Z" fill="url(#paint0_linear_105_137)"/>
<path d="M495.55 226.45C498.284 229.183 502.716 229.183 505.45 226.45L549.997 181.902C552.731 179.168 552.731 174.736 549.997 172.003C547.264 169.269 542.832 169.269 540.098 172.003L500.5 211.601L460.902 172.003C458.168 169.269 453.736 169.269 451.003 172.003C448.269 174.736 448.269 179.168 451.003 181.902L495.55 226.45ZM690 11C690 7.13401 686.866 4 683 4C679.134 4 676 7.13401 676 11L690 11ZM507.5 221.5C507.5 178.021 518.582 156.088 533.485 143.723C548.914 130.922 569.742 127.06 592.968 122.956C615.357 118.999 640.154 114.8 658.942 99.2797C678.266 83.3178 690 56.6514 690 11L676 11C676 54.3486 664.921 76.1822 650.026 88.4859C634.596 101.232 613.768 105.063 590.532 109.169C568.133 113.127 543.336 117.359 524.546 132.949C505.23 148.974 493.5 175.729 493.5 221.5H507.5Z" fill="url(#paint1_linear_105_137)"/>
<path d="M808.45 223.95C805.716 226.683 801.284 226.683 798.55 223.95L754.002 179.402C751.269 176.668 751.269 172.236 754.002 169.503C756.736 166.769 761.168 166.769 763.902 169.503L803.5 209.101L843.098 169.503C845.832 166.769 850.264 166.769 852.997 169.503C855.731 172.236 855.731 176.668 852.997 179.402L808.45 223.95ZM735.5 15.5C735.5 11.634 738.634 8.5 742.5 8.5C746.366 8.5 749.5 11.634 749.5 15.5L735.5 15.5ZM796.5 219C796.5 174.47 792.65 151.797 787.52 139.653C785.045 133.794 782.359 130.609 779.807 128.553C777.124 126.392 774.219 125.143 770.323 123.53C766.605 121.991 761.886 120.085 757.423 116.508C752.825 112.823 748.835 107.676 745.587 100.023C739.274 85.1464 735.5 60.0947 735.5 15.5L749.5 15.5C749.5 59.9053 753.351 82.4786 758.475 94.5546C760.946 100.378 763.628 103.54 766.178 105.583C768.864 107.736 771.77 108.978 775.677 110.595C779.406 112.138 784.126 114.054 788.591 117.652C793.188 121.356 797.173 126.527 800.417 134.206C806.725 149.14 810.5 174.28 810.5 219H796.5Z" fill="url(#paint2_linear_105_137)"/>
<path d="M1076.95 219.45C1074.22 222.183 1069.78 222.183 1067.05 219.45L1022.5 174.902C1019.77 172.168 1019.77 167.736 1022.5 165.003C1025.24 162.269 1029.67 162.269 1032.4 165.003L1072 204.601L1111.6 165.003C1114.33 162.269 1118.76 162.269 1121.5 165.003C1124.23 167.736 1124.23 172.168 1121.5 174.902L1076.95 219.45ZM796 11C796 7.13401 799.134 4 803 4C806.866 4 810 7.13401 810 11H796ZM1065 214.5C1065 161.579 1048.78 133.095 1025.9 116.747C1002.4 99.9572 970.566 94.9126 936.92 92.1146C920.531 90.7517 903.157 89.8808 887.417 88.3076C871.492 86.7159 856.123 84.3241 842.721 79.6391C829.253 74.9309 817.382 67.7716 808.941 56.415C800.476 45.0272 796 30.1456 796 11H810C810 27.9331 813.93 39.6592 820.177 48.0634C826.446 56.4988 835.591 62.3156 847.341 66.4234C859.158 70.5543 873.211 72.8181 888.809 74.377C904.593 75.9545 920.844 76.7294 938.08 78.1628C971.684 80.9573 1007.1 86.107 1034.04 105.356C1061.6 125.048 1079 158.449 1079 214.5L1065 214.5Z" fill="url(#paint3_linear_105_137)"/>
<defs>
<linearGradient id="paint0_linear_105_137" x1="388.851" y1="11.4" x2="261.158" y2="207.929" gradientUnits="userSpaceOnUse">
<stop stop-color="#FF69B4" stop-opacity="0.78"/>
<stop offset="1" stop-color="#FE9255" stop-opacity="0.92"/>
</linearGradient>
<linearGradient id="paint1_linear_105_137" x1="495.079" y1="11.4" x2="392.002" y2="167.162" gradientUnits="userSpaceOnUse">
<stop stop-color="#FF8885" stop-opacity="0.905882"/>
<stop offset="1" stop-color="#FEC455" stop-opacity="0.92"/>
</linearGradient>
<linearGradient id="paint2_linear_105_137" x1="940.921" y1="11.4" x2="1044" y2="167.162" gradientUnits="userSpaceOnUse">
<stop stop-color="#FF8885" stop-opacity="0.905882"/>
<stop offset="1" stop-color="#FEC455" stop-opacity="0.92"/>
</linearGradient>
<linearGradient id="paint3_linear_105_137" x1="1035.15" y1="11.9" x2="1162.84" y2="208.429" gradientUnits="userSpaceOnUse">
<stop stop-color="#FF69B4" stop-opacity="0.78"/>
<stop offset="1" stop-color="#FE9255" stop-opacity="0.92"/>
</linearGradient>
</defs>
</svg>
