<svg width="1300" height="191" viewBox="0 0 1300 191" fill="none" xmlns="http://www.w3.org/2000/svg">
<g clip-path="url(#clip0_105_144)">
<path d="M482.75 115.125L516 74.625L518.625 82.75L485.375 123L482.75 115.125ZM500.625 138.375C495.292 138.375 490.667 136.833 486.75 133.75C482.917 130.667 479.958 126.167 477.875 120.25C475.875 114.25 474.875 107 474.875 98.5C474.875 90.0833 475.875 82.875 477.875 76.875C479.958 70.875 482.917 66.2917 486.75 63.125C490.667 59.875 495.292 58.25 500.625 58.25C505.958 58.25 510.542 59.875 514.375 63.125C518.292 66.2917 521.25 70.875 523.25 76.875C525.333 82.875 526.375 90.0833 526.375 98.5C526.375 107 525.333 114.25 523.25 120.25C521.25 126.167 518.292 130.667 514.375 133.75C510.542 136.833 505.958 138.375 500.625 138.375ZM500.625 128.75C503.708 128.75 506.25 127.583 508.25 125.25C510.333 122.833 511.917 119.375 513 114.875C514.083 110.375 514.625 104.917 514.625 98.5C514.625 92.25 514.083 86.875 513 82.375C511.917 77.875 510.333 74.4167 508.25 72C506.25 69.5 503.708 68.25 500.625 68.25C497.625 68.25 495.083 69.5 493 72C490.917 74.4167 489.333 77.875 488.25 82.375C487.167 86.875 486.625 92.25 486.625 98.5C486.625 104.917 487.167 110.375 488.25 114.875C489.333 119.375 490.917 122.833 493 125.25C495.083 127.583 497.625 128.75 500.625 128.75ZM563.375 138.375C561.292 138.375 559.25 138.042 557.25 137.375C555.333 136.792 553.5 135.917 551.75 134.75C550.083 133.5 548.583 132 547.25 130.25L544.625 137H535.625V53.375H548.125H549.25V54.5C548.833 55 548.542 55.5417 548.375 56.125C548.292 56.7083 548.25 57.7083 548.25 59.125V86.5C549.083 85.1667 550.083 84 551.25 83C552.417 81.9167 553.667 81 555 80.25C556.417 79.4167 557.875 78.7917 559.375 78.375C560.958 77.9583 562.5 77.75 564 77.75C567.5 77.8333 570.667 78.5 573.5 79.75C576.417 80.9167 578.917 82.75 581 85.25C583.083 87.6667 584.667 90.7083 585.75 94.375C586.917 98.0417 587.5 102.333 587.5 107.25C587.5 112.5 586.833 117.083 585.5 121C584.25 124.917 582.5 128.167 580.25 130.75C578 133.333 575.417 135.25 572.5 136.5C569.583 137.75 566.542 138.375 563.375 138.375ZM561.25 128.375C563.083 128.375 564.792 128.042 566.375 127.375C568.042 126.708 569.5 125.583 570.75 124C572.083 122.417 573.125 120.333 573.875 117.75C574.625 115.167 575 112.042 575 108.375C575 104.958 574.667 101.958 574 99.375C573.417 96.7917 572.542 94.625 571.375 92.875C570.208 91.0417 568.75 89.7083 567 88.875C565.333 87.9583 563.5 87.5 561.5 87.5C558.75 87.5 556.375 88.3333 554.375 90C552.458 91.6667 550.958 94.0417 549.875 97.125C548.792 100.125 548.25 103.708 548.25 107.875C548.25 111.125 548.5 114.042 549 116.625C549.5 119.125 550.25 121.25 551.25 123C552.333 124.75 553.667 126.083 555.25 127C556.917 127.917 558.917 128.375 561.25 128.375ZM615.75 137V72.875L601.125 77.75L598.375 70L619.125 59H628.125V137H615.75ZM662 115.125L695.25 74.625L697.875 82.75L664.625 123L662 115.125ZM679.875 138.375C674.542 138.375 669.917 136.833 666 133.75C662.167 130.667 659.208 126.167 657.125 120.25C655.125 114.25 654.125 107 654.125 98.5C654.125 90.0833 655.125 82.875 657.125 76.875C659.208 70.875 662.167 66.2917 666 63.125C669.917 59.875 674.542 58.25 679.875 58.25C685.208 58.25 689.792 59.875 693.625 63.125C697.542 66.2917 700.5 70.875 702.5 76.875C704.583 82.875 705.625 90.0833 705.625 98.5C705.625 107 704.583 114.25 702.5 120.25C700.5 126.167 697.542 130.667 693.625 133.75C689.792 136.833 685.208 138.375 679.875 138.375ZM679.875 128.75C682.958 128.75 685.5 127.583 687.5 125.25C689.583 122.833 691.167 119.375 692.25 114.875C693.333 110.375 693.875 104.917 693.875 98.5C693.875 92.25 693.333 86.875 692.25 82.375C691.167 77.875 689.583 74.4167 687.5 72C685.5 69.5 682.958 68.25 679.875 68.25C676.875 68.25 674.333 69.5 672.25 72C670.167 74.4167 668.583 77.875 667.5 82.375C666.417 86.875 665.875 92.25 665.875 98.5C665.875 104.917 666.417 110.375 667.5 114.875C668.583 119.375 670.167 122.833 672.25 125.25C674.333 127.583 676.875 128.75 679.875 128.75ZM735.25 137V72.875L720.625 77.75L717.875 70L738.625 59H747.625V137H735.25ZM781.5 115.125L814.75 74.625L817.375 82.75L784.125 123L781.5 115.125ZM799.375 138.375C794.042 138.375 789.417 136.833 785.5 133.75C781.667 130.667 778.708 126.167 776.625 120.25C774.625 114.25 773.625 107 773.625 98.5C773.625 90.0833 774.625 82.875 776.625 76.875C778.708 70.875 781.667 66.2917 785.5 63.125C789.417 59.875 794.042 58.25 799.375 58.25C804.708 58.25 809.292 59.875 813.125 63.125C817.042 66.2917 820 70.875 822 76.875C824.083 82.875 825.125 90.0833 825.125 98.5C825.125 107 824.083 114.25 822 120.25C820 126.167 817.042 130.667 813.125 133.75C809.292 136.833 804.708 138.375 799.375 138.375ZM799.375 128.75C802.458 128.75 805 127.583 807 125.25C809.083 122.833 810.667 119.375 811.75 114.875C812.833 110.375 813.375 104.917 813.375 98.5C813.375 92.25 812.833 86.875 811.75 82.375C810.667 77.875 809.083 74.4167 807 72C805 69.5 802.458 68.25 799.375 68.25C796.375 68.25 793.833 69.5 791.75 72C789.667 74.4167 788.083 77.875 787 82.375C785.917 86.875 785.375 92.25 785.375 98.5C785.375 104.917 785.917 110.375 787 114.875C788.083 119.375 789.667 122.833 791.75 125.25C793.833 127.583 796.375 128.75 799.375 128.75Z" fill="url(#paint0_linear_105_144)"/>
</g>
<defs>
<linearGradient id="paint0_linear_105_144" x1="1300" y1="0" x2="593.134" y2="767.992" gradientUnits="userSpaceOnUse">
<stop stop-color="#FFC42C"/>
<stop offset="1" stop-color="#FF45EC" stop-opacity="0.79"/>
</linearGradient>
<clipPath id="clip0_105_144">
<rect width="1300" height="191" fill="white"/>
</clipPath>
</defs>
</svg>
