<svg width="1300" height="166" viewBox="0 0 1300 166" fill="none" xmlns="http://www.w3.org/2000/svg">
<path d="M1003.83 103.125L1037.08 62.625L1039.71 70.75L1006.46 111L1003.83 103.125ZM1021.71 126.375C1016.38 126.375 1011.75 124.833 1007.83 121.75C1004 118.667 1001.04 114.167 998.959 108.25C996.959 102.25 995.959 95 995.959 86.5C995.959 78.0833 996.959 70.875 998.959 64.875C1001.04 58.875 1004 54.2917 1007.83 51.125C1011.75 47.875 1016.38 46.25 1021.71 46.25C1027.04 46.25 1031.63 47.875 1035.46 51.125C1039.38 54.2917 1042.33 58.875 1044.33 64.875C1046.42 70.875 1047.46 78.0833 1047.46 86.5C1047.46 95 1046.42 102.25 1044.33 108.25C1042.33 114.167 1039.38 118.667 1035.46 121.75C1031.63 124.833 1027.04 126.375 1021.71 126.375ZM1021.71 116.75C1024.79 116.75 1027.33 115.583 1029.33 113.25C1031.42 110.833 1033 107.375 1034.08 102.875C1035.17 98.375 1035.71 92.9167 1035.71 86.5C1035.71 80.25 1035.17 74.875 1034.08 70.375C1033 65.875 1031.42 62.4167 1029.33 60C1027.33 57.5 1024.79 56.25 1021.71 56.25C1018.71 56.25 1016.17 57.5 1014.08 60C1012 62.4167 1010.42 65.875 1009.33 70.375C1008.25 74.875 1007.71 80.25 1007.71 86.5C1007.71 92.9167 1008.25 98.375 1009.33 102.875C1010.42 107.375 1012 110.833 1014.08 113.25C1016.17 115.583 1018.71 116.75 1021.71 116.75ZM1059.06 118.333L1054.4 114.616L1061.77 106.592L1052.27 103.76L1054.34 98.45L1063.01 102.875L1061.83 93.14H1068.56L1067.08 102.875L1075.52 98.863L1077.7 103.878L1068.2 106.533L1075.34 114.616L1070.62 118.274L1064.96 109.07L1059.06 118.333ZM1083.77 118.71C1086.94 115.537 1089.8 112.703 1092.35 110.21C1094.9 107.66 1097.14 105.365 1099.07 103.325C1101.05 101.228 1102.69 99.3017 1104 97.545C1105.3 95.7317 1106.26 93.9467 1106.89 92.19C1107.57 90.4333 1107.91 88.5633 1107.91 86.58C1107.91 85.1633 1107.71 83.945 1107.31 82.925C1106.97 81.905 1106.46 81.0833 1105.78 80.46C1105.1 79.78 1104.25 79.2983 1103.23 79.015C1102.27 78.675 1101.16 78.505 1099.92 78.505C1098.67 78.505 1097.48 78.675 1096.35 79.015C1095.27 79.2983 1094.22 79.78 1093.2 80.46C1092.24 81.0833 1091.33 81.905 1090.48 82.925C1089.91 83.7183 1089.57 84.3133 1089.46 84.71C1089.35 85.1067 1089.32 85.5317 1089.38 85.985L1088.95 86.58L1088.27 86.155L1082.49 81.65C1083.68 79.44 1085.15 77.57 1086.91 76.04C1088.72 74.51 1090.74 73.3767 1092.95 72.64C1095.16 71.8467 1097.48 71.45 1099.92 71.45C1103.03 71.45 1105.78 72.0733 1108.16 73.32C1110.6 74.5667 1112.52 76.3233 1113.94 78.59C1115.36 80.8567 1116.07 83.5483 1116.07 86.665C1116.07 88.875 1115.7 91 1114.96 93.04C1114.28 95.08 1113.29 97.0917 1111.99 99.075C1110.68 101.002 1109.15 102.957 1107.4 104.94C1105.64 106.923 1103.68 108.992 1101.53 111.145C1099.38 113.298 1097.08 115.593 1094.65 118.03H1112.33C1113.29 118.03 1113.97 117.973 1114.37 117.86C1114.76 117.747 1115.13 117.548 1115.47 117.265H1116.24V118.03V125H1083.77V118.71ZM1131.96 94.315L1147.43 77.655L1148.62 81.65L1133.15 98.14L1131.96 94.315ZM1140.29 104.685C1137.8 104.685 1135.64 104.033 1133.83 102.73C1132.02 101.427 1130.6 99.5283 1129.58 97.035C1128.62 94.485 1128.14 91.425 1128.14 87.855C1128.14 84.285 1128.62 81.225 1129.58 78.675C1130.6 76.125 1132.02 74.17 1133.83 72.81C1135.64 71.45 1137.8 70.77 1140.29 70.77C1142.78 70.77 1144.94 71.45 1146.75 72.81C1148.56 74.17 1149.95 76.125 1150.92 78.675C1151.94 81.225 1152.45 84.285 1152.45 87.855C1152.45 91.425 1151.94 94.485 1150.92 97.035C1149.95 99.5283 1148.56 101.427 1146.75 102.73C1144.94 104.033 1142.78 104.685 1140.29 104.685ZM1140.29 100.01C1142.44 100.01 1144.06 98.9617 1145.14 96.865C1146.21 94.7117 1146.75 91.7083 1146.75 87.855C1146.75 85.305 1146.5 83.1233 1145.99 81.31C1145.53 79.4967 1144.82 78.1083 1143.86 77.145C1142.9 76.1817 1141.71 75.7 1140.29 75.7C1138.87 75.7 1137.68 76.1817 1136.72 77.145C1135.76 78.1083 1135.02 79.4967 1134.51 81.31C1134.06 83.1233 1133.83 85.305 1133.83 87.855C1133.83 91.7083 1134.37 94.7117 1135.45 96.865C1136.58 98.9617 1138.19 100.01 1140.29 100.01Z" fill="url(#paint0_linear_105_124)"/>
<path d="M734.334 125V60.875L719.709 65.75L716.959 58L737.709 47H746.709V125H734.334ZM776.059 118.333L771.398 114.616L778.773 106.592L769.274 103.76L771.339 98.45L780.012 102.875L778.832 93.14H785.558L784.083 102.875L792.52 98.863L794.703 103.878L785.204 106.533L792.343 114.616L787.623 118.274L781.959 109.07L776.059 118.333ZM800.766 118.71C803.939 115.537 806.801 112.703 809.351 110.21C811.901 107.66 814.139 105.365 816.066 103.325C818.049 101.228 819.693 99.3017 820.996 97.545C822.299 95.7317 823.263 93.9467 823.886 92.19C824.566 90.4333 824.906 88.5633 824.906 86.58C824.906 85.1633 824.708 83.945 824.311 82.925C823.971 81.905 823.461 81.0833 822.781 80.46C822.101 79.78 821.251 79.2983 820.231 79.015C819.268 78.675 818.163 78.505 816.916 78.505C815.669 78.505 814.479 78.675 813.346 79.015C812.269 79.2983 811.221 79.78 810.201 80.46C809.238 81.0833 808.331 81.905 807.481 82.925C806.914 83.7183 806.574 84.3133 806.461 84.71C806.348 85.1067 806.319 85.5317 806.376 85.985L805.951 86.58L805.271 86.155L799.491 81.65C800.681 79.44 802.154 77.57 803.911 76.04C805.724 74.51 807.736 73.3767 809.946 72.64C812.156 71.8467 814.479 71.45 816.916 71.45C820.033 71.45 822.781 72.0733 825.161 73.32C827.598 74.5667 829.524 76.3233 830.941 78.59C832.358 80.8567 833.066 83.5483 833.066 86.665C833.066 88.875 832.698 91 831.961 93.04C831.281 95.08 830.289 97.0917 828.986 99.075C827.683 101.002 826.153 102.957 824.396 104.94C822.639 106.923 820.684 108.992 818.531 111.145C816.378 113.298 814.083 115.593 811.646 118.03H829.326C830.289 118.03 830.969 117.973 831.366 117.86C831.763 117.747 832.131 117.548 832.471 117.265H833.236V118.03V125H800.766V118.71ZM855.081 104.09V77.74L848.451 79.95L847.091 75.955L856.611 71.195H861.201V104.09H855.081Z" fill="url(#paint1_linear_105_124)"/>
<path d="M165.334 125V60.875L150.709 65.75L147.959 58L168.709 47H177.709V125H165.334ZM207.059 118.333L202.398 114.616L209.773 106.592L200.274 103.76L202.339 98.45L211.012 102.875L209.832 93.14H216.558L215.083 102.875L223.52 98.863L225.703 103.878L216.204 106.533L223.343 114.616L218.623 118.274L212.959 109.07L207.059 118.333ZM231.766 118.71C234.939 115.537 237.801 112.703 240.351 110.21C242.901 107.66 245.139 105.365 247.066 103.325C249.049 101.228 250.693 99.3017 251.996 97.545C253.299 95.7317 254.263 93.9467 254.886 92.19C255.566 90.4333 255.906 88.5633 255.906 86.58C255.906 85.1633 255.708 83.945 255.311 82.925C254.971 81.905 254.461 81.0833 253.781 80.46C253.101 79.78 252.251 79.2983 251.231 79.015C250.268 78.675 249.163 78.505 247.916 78.505C246.669 78.505 245.479 78.675 244.346 79.015C243.269 79.2983 242.221 79.78 241.201 80.46C240.238 81.0833 239.331 81.905 238.481 82.925C237.914 83.7183 237.574 84.3133 237.461 84.71C237.348 85.1067 237.319 85.5317 237.376 85.985L236.951 86.58L236.271 86.155L230.491 81.65C231.681 79.44 233.154 77.57 234.911 76.04C236.724 74.51 238.736 73.3767 240.946 72.64C243.156 71.8467 245.479 71.45 247.916 71.45C251.033 71.45 253.781 72.0733 256.161 73.32C258.598 74.5667 260.524 76.3233 261.941 78.59C263.358 80.8567 264.066 83.5483 264.066 86.665C264.066 88.875 263.698 91 262.961 93.04C262.281 95.08 261.289 97.0917 259.986 99.075C258.683 101.002 257.153 102.957 255.396 104.94C253.639 106.923 251.684 108.992 249.531 111.145C247.378 113.298 245.083 115.593 242.646 118.03H260.326C261.289 118.03 261.969 117.973 262.366 117.86C262.763 117.747 263.131 117.548 263.471 117.265H264.236V118.03V125H231.766V118.71ZM287.441 104.685C285.344 104.685 283.304 104.373 281.321 103.75C279.338 103.07 277.751 102.078 276.561 100.775L279.706 96.44L280.216 95.76L280.811 96.185C280.924 96.6383 281.094 97.0633 281.321 97.46C281.548 97.8 282.029 98.2533 282.766 98.82C283.389 99.1033 284.069 99.3583 284.806 99.585C285.543 99.755 286.336 99.84 287.186 99.84C289.113 99.84 290.586 99.3583 291.606 98.395C292.683 97.4317 293.221 96.2133 293.221 94.74C293.221 93.2667 292.824 92.1333 292.031 91.34C291.294 90.49 290.218 89.9233 288.801 89.64C287.384 89.3 285.628 89.2433 283.531 89.47V84.71C285.231 84.71 286.648 84.625 287.781 84.455C288.914 84.2283 289.793 83.8883 290.416 83.435C291.096 82.9817 291.578 82.4433 291.861 81.82C292.144 81.1967 292.286 80.545 292.286 79.865C292.286 79.015 292.059 78.3067 291.606 77.74C291.209 77.1167 290.643 76.635 289.906 76.295C289.226 75.955 288.404 75.785 287.441 75.785C286.251 75.785 285.089 75.9833 283.956 76.38C282.879 76.7767 281.888 77.4283 280.981 78.335L277.411 74.68C278.771 73.2633 280.358 72.2717 282.171 71.705C283.984 71.0817 285.769 70.77 287.526 70.77C290.699 70.77 293.278 71.5633 295.261 73.15C297.244 74.7367 298.236 76.7483 298.236 79.185C298.236 81.055 297.698 82.6417 296.621 83.945C295.601 85.1917 294.354 86.0983 292.881 86.665C294.014 87.005 295.063 87.5433 296.026 88.28C296.989 88.96 297.783 89.8667 298.406 91C299.029 92.0767 299.341 93.38 299.341 94.91C299.341 96.78 298.859 98.4517 297.896 99.925C296.989 101.398 295.658 102.56 293.901 103.41C292.144 104.26 289.991 104.685 287.441 104.685Z" fill="url(#paint2_linear_105_124)"/>
<path d="M436.834 103.125L470.084 62.625L472.709 70.75L439.459 111L436.834 103.125ZM454.709 126.375C449.376 126.375 444.751 124.833 440.834 121.75C437.001 118.667 434.042 114.167 431.959 108.25C429.959 102.25 428.959 95 428.959 86.5C428.959 78.0833 429.959 70.875 431.959 64.875C434.042 58.875 437.001 54.2917 440.834 51.125C444.751 47.875 449.376 46.25 454.709 46.25C460.042 46.25 464.626 47.875 468.459 51.125C472.376 54.2917 475.334 58.875 477.334 64.875C479.417 70.875 480.459 78.0833 480.459 86.5C480.459 95 479.417 102.25 477.334 108.25C475.334 114.167 472.376 118.667 468.459 121.75C464.626 124.833 460.042 126.375 454.709 126.375ZM454.709 116.75C457.792 116.75 460.334 115.583 462.334 113.25C464.417 110.833 466.001 107.375 467.084 102.875C468.167 98.375 468.709 92.9167 468.709 86.5C468.709 80.25 468.167 74.875 467.084 70.375C466.001 65.875 464.417 62.4167 462.334 60C460.334 57.5 457.792 56.25 454.709 56.25C451.709 56.25 449.167 57.5 447.084 60C445.001 62.4167 443.417 65.875 442.334 70.375C441.251 74.875 440.709 80.25 440.709 86.5C440.709 92.9167 441.251 98.375 442.334 102.875C443.417 107.375 445.001 110.833 447.084 113.25C449.167 115.583 451.709 116.75 454.709 116.75ZM492.059 118.333L487.398 114.616L494.773 106.592L485.274 103.76L487.339 98.45L496.012 102.875L494.832 93.14H501.558L500.083 102.875L508.52 98.863L510.703 103.878L501.204 106.533L508.343 114.616L503.623 118.274L497.959 109.07L492.059 118.333ZM516.766 118.71C519.939 115.537 522.801 112.703 525.351 110.21C527.901 107.66 530.139 105.365 532.066 103.325C534.049 101.228 535.693 99.3017 536.996 97.545C538.299 95.7317 539.263 93.9467 539.886 92.19C540.566 90.4333 540.906 88.5633 540.906 86.58C540.906 85.1633 540.708 83.945 540.311 82.925C539.971 81.905 539.461 81.0833 538.781 80.46C538.101 79.78 537.251 79.2983 536.231 79.015C535.268 78.675 534.163 78.505 532.916 78.505C531.669 78.505 530.479 78.675 529.346 79.015C528.269 79.2983 527.221 79.78 526.201 80.46C525.238 81.0833 524.331 81.905 523.481 82.925C522.914 83.7183 522.574 84.3133 522.461 84.71C522.348 85.1067 522.319 85.5317 522.376 85.985L521.951 86.58L521.271 86.155L515.491 81.65C516.681 79.44 518.154 77.57 519.911 76.04C521.724 74.51 523.736 73.3767 525.946 72.64C528.156 71.8467 530.479 71.45 532.916 71.45C536.033 71.45 538.781 72.0733 541.161 73.32C543.598 74.5667 545.524 76.3233 546.941 78.59C548.358 80.8567 549.066 83.5483 549.066 86.665C549.066 88.875 548.698 91 547.961 93.04C547.281 95.08 546.289 97.0917 544.986 99.075C543.683 101.002 542.153 102.957 540.396 104.94C538.639 106.923 536.684 108.992 534.531 111.145C532.378 113.298 530.083 115.593 527.646 118.03H545.326C546.289 118.03 546.969 117.973 547.366 117.86C547.763 117.747 548.131 117.548 548.471 117.265H549.236V118.03V125H516.766V118.71ZM562.241 99.67C565.018 97.1767 567.426 95.0517 569.466 93.295C571.506 91.4817 573.206 89.895 574.566 88.535C575.926 87.1183 576.946 85.7583 577.626 84.455C578.363 83.1517 578.731 81.7917 578.731 80.375C578.731 79.355 578.533 78.505 578.136 77.825C577.739 77.145 577.144 76.6633 576.351 76.38C575.558 76.04 574.566 75.87 573.376 75.87C572.356 75.87 571.393 76.0117 570.486 76.295C569.579 76.5217 568.758 76.9183 568.021 77.485C567.454 78.165 567.058 78.7033 566.831 79.1C566.661 79.44 566.576 79.8367 566.576 80.29L566.151 80.885L565.471 80.375L561.306 77.06C562.666 75.0767 564.394 73.5467 566.491 72.47C568.588 71.3367 570.911 70.77 573.461 70.77C575.558 70.77 577.456 71.1667 579.156 71.96C580.856 72.7533 582.188 73.8583 583.151 75.275C584.114 76.635 584.596 78.3067 584.596 80.29C584.596 81.99 584.256 83.5767 583.576 85.05C582.953 86.5233 582.018 87.9967 580.771 89.47C579.581 90.8867 578.136 92.3883 576.436 93.975C574.793 95.5617 572.951 97.29 570.911 99.16H580.856C581.819 99.16 582.499 99.1033 582.896 98.99C583.293 98.8767 583.661 98.65 584.001 98.31H584.766V99.16V104.09H562.241V99.67Z" fill="url(#paint3_linear_105_124)"/>
<path d="M365.258 102.864V92.244H355.169V87.642H365.258V77.907H370.273V87.642H379.949V92.244H370.273V102.864H365.258Z" fill="url(#paint4_linear_105_124)"/>
<path d="M933.258 102.864V92.244H923.169V87.642H933.258V77.907H938.273V87.642H947.949V92.244H938.273V102.864H933.258Z" fill="url(#paint5_linear_105_124)"/>
<path d="M648.258 102.864V92.244H638.169V87.642H648.258V77.907H653.273V87.642H662.949V92.244H653.273V102.864H648.258Z" fill="url(#paint6_linear_105_124)"/>
<defs>
<linearGradient id="paint0_linear_105_124" x1="1300" y1="0" x2="852" y2="193" gradientUnits="userSpaceOnUse">
<stop stop-color="#FFC42C"/>
<stop offset="1" stop-color="#FF45EC" stop-opacity="0.79"/>
</linearGradient>
<linearGradient id="paint1_linear_105_124" x1="1017" y1="0" x2="569" y2="193" gradientUnits="userSpaceOnUse">
<stop stop-color="#FFC42C"/>
<stop offset="1" stop-color="#FF45EC" stop-opacity="0.79"/>
</linearGradient>
<linearGradient id="paint2_linear_105_124" x1="448" y1="0" x2="2.63646e-06" y2="193" gradientUnits="userSpaceOnUse">
<stop stop-color="#FFC42C"/>
<stop offset="1" stop-color="#FF45EC" stop-opacity="0.79"/>
</linearGradient>
<linearGradient id="paint3_linear_105_124" x1="733" y1="0" x2="285" y2="193" gradientUnits="userSpaceOnUse">
<stop stop-color="#FFC42C"/>
<stop offset="1" stop-color="#FF45EC" stop-opacity="0.79"/>
</linearGradient>
<linearGradient id="paint4_linear_105_124" x1="401" y1="54" x2="323.328" y2="65.7001" gradientUnits="userSpaceOnUse">
<stop stop-color="#FFC42C"/>
<stop offset="1" stop-color="#FF45EC" stop-opacity="0.79"/>
</linearGradient>
<linearGradient id="paint5_linear_105_124" x1="969" y1="54" x2="891.328" y2="65.7001" gradientUnits="userSpaceOnUse">
<stop stop-color="#FFC42C"/>
<stop offset="1" stop-color="#FF45EC" stop-opacity="0.79"/>
</linearGradient>
<linearGradient id="paint6_linear_105_124" x1="684" y1="54" x2="606.328" y2="65.7001" gradientUnits="userSpaceOnUse">
<stop stop-color="#FFC42C"/>
<stop offset="1" stop-color="#FF45EC" stop-opacity="0.79"/>
</linearGradient>
</defs>
</svg>
