<svg width="1300" height="152" viewBox="0 0 1300 152" fill="none" xmlns="http://www.w3.org/2000/svg">
<path d="M1058.13 96.125L1091.38 55.625L1094 63.75L1060.75 104L1058.13 96.125ZM1076 119.375C1070.67 119.375 1066.04 117.833 1062.13 114.75C1058.29 111.667 1055.33 107.167 1053.25 101.25C1051.25 95.25 1050.25 88 1050.25 79.5C1050.25 71.0833 1051.25 63.875 1053.25 57.875C1055.33 51.875 1058.29 47.2917 1062.13 44.125C1066.04 40.875 1070.67 39.25 1076 39.25C1081.33 39.25 1085.92 40.875 1089.75 44.125C1093.67 47.2917 1096.63 51.875 1098.63 57.875C1100.71 63.875 1101.75 71.0833 1101.75 79.5C1101.75 88 1100.71 95.25 1098.63 101.25C1096.63 107.167 1093.67 111.667 1089.75 114.75C1085.92 117.833 1081.33 119.375 1076 119.375ZM1076 109.75C1079.08 109.75 1081.63 108.583 1083.63 106.25C1085.71 103.833 1087.29 100.375 1088.38 95.875C1089.46 91.375 1090 85.9167 1090 79.5C1090 73.25 1089.46 67.875 1088.38 63.375C1087.29 58.875 1085.71 55.4167 1083.63 53C1081.63 50.5 1079.08 49.25 1076 49.25C1073 49.25 1070.46 50.5 1068.38 53C1066.29 55.4167 1064.71 58.875 1063.63 63.375C1062.54 67.875 1062 73.25 1062 79.5C1062 85.9167 1062.54 91.375 1063.63 95.875C1064.71 100.375 1066.29 103.833 1068.38 106.25C1070.46 108.583 1073 109.75 1076 109.75Z" fill="url(#paint0_linear_105_125)"/>
<path d="M769.625 108.75C774.292 104.083 778.5 99.9167 782.25 96.25C786 92.5 789.292 89.125 792.125 86.125C795.042 83.0417 797.458 80.2083 799.375 77.625C801.292 74.9583 802.708 72.3333 803.625 69.75C804.625 67.1667 805.125 64.4167 805.125 61.5C805.125 59.4167 804.833 57.625 804.25 56.125C803.75 54.625 803 53.4167 802 52.5C801 51.5 799.75 50.7917 798.25 50.375C796.833 49.875 795.208 49.625 793.375 49.625C791.542 49.625 789.792 49.875 788.125 50.375C786.542 50.7917 785 51.5 783.5 52.5C782.083 53.4167 780.75 54.625 779.5 56.125C778.667 57.2917 778.167 58.1667 778 58.75C777.833 59.3333 777.792 59.9583 777.875 60.625L777.25 61.5L776.25 60.875L767.75 54.25C769.5 51 771.667 48.25 774.25 46C776.917 43.75 779.875 42.0833 783.125 41C786.375 39.8333 789.792 39.25 793.375 39.25C797.958 39.25 802 40.1667 805.5 42C809.083 43.8333 811.917 46.4167 814 49.75C816.083 53.0833 817.125 57.0417 817.125 61.625C817.125 64.875 816.583 68 815.5 71C814.5 74 813.042 76.9583 811.125 79.875C809.208 82.7083 806.958 85.5833 804.375 88.5C801.792 91.4167 798.917 94.4583 795.75 97.625C792.583 100.792 789.208 104.167 785.625 107.75H811.625C813.042 107.75 814.042 107.667 814.625 107.5C815.208 107.333 815.75 107.042 816.25 106.625H817.375V107.75V118H769.625V108.75Z" fill="url(#paint1_linear_105_125)"/>
<path d="M224 119.375C218.917 119.375 214.458 118.458 210.625 116.625C206.875 114.708 203.958 112.167 201.875 109C199.875 105.75 198.875 102.125 198.875 98.125C198.875 94.875 199.5 91.9167 200.75 89.25C202 86.5833 203.75 84.1667 206 82C208.25 79.8333 210.875 78 213.875 76.5C211.625 75.1667 209.625 73.5833 207.875 71.75C206.208 69.9167 204.875 67.875 203.875 65.625C202.958 63.375 202.5 61.0417 202.5 58.625C202.5 54.9583 203.375 51.6667 205.125 48.75C206.958 45.75 209.5 43.375 212.75 41.625C216.083 39.7917 220.042 38.875 224.625 38.875C229.542 38.875 233.583 39.75 236.75 41.5C240 43.1667 242.458 45.4583 244.125 48.375C245.792 51.2083 246.625 54.375 246.625 57.875C246.625 59.875 246.375 61.7917 245.875 63.625C245.375 65.4583 244.625 67.2083 243.625 68.875C242.625 70.4583 241.417 71.9167 240 73.25C238.667 74.5833 237.125 75.75 235.375 76.75C237.542 77.75 239.458 79 241.125 80.5C242.875 82 244.333 83.6667 245.5 85.5C246.75 87.3333 247.667 89.2917 248.25 91.375C248.917 93.375 249.25 95.4583 249.25 97.625C249.25 101.875 248.208 105.625 246.125 108.875C244.042 112.125 241.083 114.708 237.25 116.625C233.5 118.458 229.083 119.375 224 119.375ZM224.25 108.875C227.083 108.875 229.417 108.375 231.25 107.375C233.167 106.292 234.583 104.875 235.5 103.125C236.5 101.375 237 99.375 237 97.125C237 95.375 236.625 93.7083 235.875 92.125C235.208 90.5417 234.208 89.0833 232.875 87.75C231.625 86.3333 230.042 85.0833 228.125 84C226.292 82.9167 224.25 82 222 81.25C220.417 82.0833 218.958 83.0417 217.625 84.125C216.292 85.125 215.125 86.2917 214.125 87.625C213.208 88.9583 212.458 90.375 211.875 91.875C211.375 93.375 211.125 95 211.125 96.75C211.125 99 211.625 101.042 212.625 102.875C213.708 104.708 215.208 106.167 217.125 107.25C219.125 108.333 221.5 108.875 224.25 108.875ZM226.375 72.75C227.708 71.9167 228.875 70.9583 229.875 69.875C230.958 68.7917 231.875 67.6667 232.625 66.5C233.375 65.3333 233.917 64.0833 234.25 62.75C234.667 61.4167 234.875 60.0833 234.875 58.75C234.875 57 234.458 55.4167 233.625 54C232.875 52.5 231.708 51.2917 230.125 50.375C228.542 49.4583 226.625 49 224.375 49C222.125 49 220.25 49.4583 218.75 50.375C217.25 51.2083 216.125 52.3333 215.375 53.75C214.625 55.1667 214.25 56.7083 214.25 58.375C214.25 60.0417 214.542 61.5833 215.125 63C215.792 64.3333 216.667 65.5833 217.75 66.75C218.917 67.9167 220.208 69 221.625 70C223.125 71 224.708 71.9167 226.375 72.75Z" fill="url(#paint2_linear_105_125)"/>
<path d="M491.125 96.125L524.375 55.625L527 63.75L493.75 104L491.125 96.125ZM509 119.375C503.667 119.375 499.042 117.833 495.125 114.75C491.292 111.667 488.334 107.167 486.25 101.25C484.25 95.25 483.25 88 483.25 79.5C483.25 71.0833 484.25 63.875 486.25 57.875C488.334 51.875 491.292 47.2917 495.125 44.125C499.042 40.875 503.667 39.25 509 39.25C514.334 39.25 518.917 40.875 522.75 44.125C526.667 47.2917 529.625 51.875 531.625 57.875C533.709 63.875 534.75 71.0833 534.75 79.5C534.75 88 533.709 95.25 531.625 101.25C529.625 107.167 526.667 111.667 522.75 114.75C518.917 117.833 514.334 119.375 509 119.375ZM509 109.75C512.084 109.75 514.625 108.583 516.625 106.25C518.709 103.833 520.292 100.375 521.375 95.875C522.459 91.375 523 85.9167 523 79.5C523 73.25 522.459 67.875 521.375 63.375C520.292 58.875 518.709 55.4167 516.625 53C514.625 50.5 512.084 49.25 509 49.25C506 49.25 503.459 50.5 501.375 53C499.292 55.4167 497.709 58.875 496.625 63.375C495.542 67.875 495 73.25 495 79.5C495 85.9167 495.542 91.375 496.625 95.875C497.709 100.375 499.292 103.833 501.375 106.25C503.459 108.583 506 109.75 509 109.75Z" fill="url(#paint3_linear_105_125)"/>
<path d="M365.257 95.3098V84.6898H355.168V80.0878H365.257V70.3528H370.272V80.0878H379.948V84.6898H370.272V95.3098H365.257Z" fill="url(#paint4_linear_105_125)"/>
<path d="M933.258 95.3098V84.6898H923.169V80.0878H933.258V70.3528H938.273V80.0878H947.949V84.6898H938.273V95.3098H933.258Z" fill="url(#paint5_linear_105_125)"/>
<path d="M52.287 78.9668V74.3648H76.831V78.9668H52.287ZM52.287 91.2978V86.6368H76.831V91.2978H52.287Z" fill="url(#paint6_linear_105_125)"/>
<path d="M648.258 95.3098V84.6898H638.169V80.0878H648.258V70.3528H653.273V80.0878H662.949V84.6898H653.273V95.3098H648.258Z" fill="url(#paint7_linear_105_125)"/>
<defs>
<linearGradient id="paint0_linear_105_125" x1="1300" y1="0" x2="865.118" y2="204.605" gradientUnits="userSpaceOnUse">
<stop stop-color="#FFC42C"/>
<stop offset="1" stop-color="#FF45EC" stop-opacity="0.79"/>
</linearGradient>
<linearGradient id="paint1_linear_105_125" x1="1017" y1="0" x2="582.118" y2="204.605" gradientUnits="userSpaceOnUse">
<stop stop-color="#FFC42C"/>
<stop offset="1" stop-color="#FF45EC" stop-opacity="0.79"/>
</linearGradient>
<linearGradient id="paint2_linear_105_125" x1="448" y1="0" x2="13.1179" y2="204.605" gradientUnits="userSpaceOnUse">
<stop stop-color="#FFC42C"/>
<stop offset="1" stop-color="#FF45EC" stop-opacity="0.79"/>
</linearGradient>
<linearGradient id="paint3_linear_105_125" x1="733" y1="0" x2="298.118" y2="204.605" gradientUnits="userSpaceOnUse">
<stop stop-color="#FFC42C"/>
<stop offset="1" stop-color="#FF45EC" stop-opacity="0.79"/>
</linearGradient>
<linearGradient id="paint4_linear_105_125" x1="400.999" y1="49.4458" x2="323.657" y2="62.1692" gradientUnits="userSpaceOnUse">
<stop stop-color="#FFC42C"/>
<stop offset="1" stop-color="#FF45EC" stop-opacity="0.79"/>
</linearGradient>
<linearGradient id="paint5_linear_105_125" x1="969" y1="49.4458" x2="891.658" y2="62.1692" gradientUnits="userSpaceOnUse">
<stop stop-color="#FFC42C"/>
<stop offset="1" stop-color="#FF45EC" stop-opacity="0.79"/>
</linearGradient>
<linearGradient id="paint6_linear_105_125" x1="98" y1="49.4458" x2="20.6585" y2="62.1692" gradientUnits="userSpaceOnUse">
<stop stop-color="#FFC42C"/>
<stop offset="1" stop-color="#FF45EC" stop-opacity="0.79"/>
</linearGradient>
<linearGradient id="paint7_linear_105_125" x1="684" y1="49.4458" x2="606.658" y2="62.1692" gradientUnits="userSpaceOnUse">
<stop stop-color="#FFC42C"/>
<stop offset="1" stop-color="#FF45EC" stop-opacity="0.79"/>
</linearGradient>
</defs>
</svg>
