<svg width="1300" height="192" viewBox="0 0 1300 192" fill="none" xmlns="http://www.w3.org/2000/svg">
<path d="M577.311 101.521V96.919H601.855V101.521H577.311ZM577.311 113.852V109.191H601.855V113.852H577.311ZM629.851 124V59.875L615.226 64.75L612.476 57L633.226 46H642.226V124H629.851ZM676.101 102.125L709.351 61.625L711.976 69.75L678.726 110L676.101 102.125ZM693.976 125.375C688.643 125.375 684.018 123.833 680.101 120.75C676.268 117.667 673.309 113.167 671.226 107.25C669.226 101.25 668.226 94 668.226 85.5C668.226 77.0833 669.226 69.875 671.226 63.875C673.309 57.875 676.268 53.2917 680.101 50.125C684.018 46.875 688.643 45.25 693.976 45.25C699.309 45.25 703.893 46.875 707.726 50.125C711.643 53.2917 714.601 57.875 716.601 63.875C718.684 69.875 719.726 77.0833 719.726 85.5C719.726 94 718.684 101.25 716.601 107.25C714.601 113.167 711.643 117.667 707.726 120.75C703.893 123.833 699.309 125.375 693.976 125.375ZM693.976 115.75C697.059 115.75 699.601 114.583 701.601 112.25C703.684 109.833 705.268 106.375 706.351 101.875C707.434 97.375 707.976 91.9167 707.976 85.5C707.976 79.25 707.434 73.875 706.351 69.375C705.268 64.875 703.684 61.4167 701.601 59C699.601 56.5 697.059 55.25 693.976 55.25C690.976 55.25 688.434 56.5 686.351 59C684.268 61.4167 682.684 64.875 681.601 69.375C680.518 73.875 679.976 79.25 679.976 85.5C679.976 91.9167 680.518 97.375 681.601 101.875C682.684 106.375 684.268 109.833 686.351 112.25C688.434 114.583 690.976 115.75 693.976 115.75Z" fill="url(#paint0_linear_105_145)"/>
<defs>
<linearGradient id="paint0_linear_105_145" x1="1300" y1="0" x2="707.454" y2="749.775" gradientUnits="userSpaceOnUse">
<stop stop-color="#FFC42C"/>
<stop offset="1" stop-color="#FF45EC" stop-opacity="0.79"/>
</linearGradient>
</defs>
</svg>
